<?xml version="1.0" encoding="UTF-8"?>
<svg version="1.1" xmlns="http://www.w3.org/2000/svg" width="225" height="225">
<path d="M0 0 C74.25 0 148.5 0 225 0 C225 74.25 225 148.5 225 225 C150.75 225 76.5 225 0 225 C0 150.75 0 76.5 0 0 Z " fill="#060606" transform="translate(0,0)"/>
<path d="M0 0 C74.25 0 148.5 0 225 0 C225 74.25 225 148.5 225 225 C150.75 225 76.5 225 0 225 C0 150.75 0 76.5 0 0 Z M35 58 C34.24074219 58.67804687 33.48148438 59.35609375 32.69921875 60.0546875 C19.31877873 72.69301908 11.50420769 89.74583795 10.8203125 108.10546875 C10.28839824 130.81744413 17.06632834 148.52997229 32.6875 165.1875 C47.44363958 179.40212987 65.99138658 185.37623091 86.08398438 185.21459961 C87.24956375 185.21316956 88.41514313 185.2117395 89.61604309 185.21026611 C93.44207818 185.20212792 97.26779731 185.1783599 101.09375 185.15234375 C103.09155574 185.14226418 105.08936152 185.13218771 107.08716917 185.12249571 C113.35882619 185.09144084 119.63032226 185.04811686 125.90185547 184.99829102 C132.34684078 184.9474148 138.79157262 184.92277596 145.23673582 184.91010088 C150.79559715 184.89792218 156.35414545 184.86660106 161.91283083 184.8208161 C165.22189002 184.79391514 168.53046343 184.77696811 171.83964539 184.77497673 C175.53237137 184.77042445 179.22356884 184.73455068 182.91601562 184.69116211 C183.99579178 184.69664566 185.07556793 184.70212921 186.18806458 184.70777893 C194.51383811 184.5590242 200.99186562 182.3336887 207.4375 176.97265625 C207.953125 176.34230469 208.46875 175.71195313 209 175.0625 C209.53625 174.43472656 210.0725 173.80695313 210.625 173.16015625 C213.88913439 168.03212693 214.32733642 162.79771467 214.37109375 156.85546875 C214.38012222 156.08624588 214.3891507 155.31702301 214.39845276 154.52449036 C214.41289909 152.90332902 214.42182796 151.28211013 214.42553711 149.66088867 C214.43741755 147.2045467 214.48663906 144.75073363 214.53710938 142.29492188 C214.64250017 132.02444866 213.65885449 125.45751525 206.8125 117.4375 C205.12439151 115.79286843 205.12439151 115.79286843 203 116 C203 115.34 203 114.68 203 114 C203.556875 113.79375 204.11375 113.5875 204.6875 113.375 C209.43663483 110.5511901 212.3895757 106.20391446 214 101 C214.21206981 98.19907458 214.32771865 95.49993094 214.3359375 92.69921875 C214.3425943 91.90401321 214.3492511 91.10880768 214.35610962 90.289505 C214.36620719 88.61107689 214.37092754 86.93260885 214.37060547 85.25415039 C214.37496857 82.70585797 214.41128837 80.15931339 214.44921875 77.61132812 C214.45508984 75.9739642 214.45905728 74.33659212 214.4609375 72.69921875 C214.48249405 71.57068733 214.48249405 71.57068733 214.50448608 70.4193573 C214.44867107 63.85186684 212.38491144 58.67370931 208 53.7578125 C207.01 52.94957031 207.01 52.94957031 206 52.125 C205.01 51.29355469 205.01 51.29355469 204 50.4453125 C199.35217208 47.08653061 195.63907397 46.71789441 189.96533203 46.76049805 C189.15818253 46.75848389 188.35103302 46.75646973 187.51942444 46.75439453 C185.76739977 46.75085165 184.01536232 46.7516129 182.26334 46.75617027 C179.47821703 46.76177834 176.69350835 46.75257702 173.90841675 46.7389679 C165.98970828 46.70192508 158.07113649 46.68322139 150.15234375 46.69458008 C145.30399665 46.70047941 140.4562272 46.68193078 135.60799789 46.64869118 C133.7718861 46.64080553 131.93571018 46.64191996 130.09961319 46.65271568 C119.84246382 46.71037355 111.41930674 46.19057769 101.85397339 42.16902161 C80.08085487 33.25049206 51.60870741 43.1051367 35 58 Z " fill="#FEFEFE" transform="translate(0,0)"/>
<path d="M0 0 C0.90339111 -0.00314209 1.80678223 -0.00628418 2.73754883 -0.00952148 C12.13742359 0.15463605 21.54229142 2.20864571 30 6.4375 C32.64275633 6.53394217 35.25985248 6.57063688 37.90283203 6.56347656 C38.71932724 6.5653447 39.53582245 6.56721283 40.37705994 6.56913757 C42.15423389 6.573147 43.93141302 6.57521691 45.70859146 6.57559967 C49.49111739 6.57901209 53.27347096 6.6003752 57.05593681 6.62083054 C64.10078998 6.65884947 71.14546228 6.6901198 78.19042969 6.68798828 C83.08834606 6.6871995 87.98563584 6.71064019 92.88338852 6.7498703 C94.74677587 6.76031052 96.61023573 6.76186894 98.47363663 6.75421906 C101.0900417 6.74455368 103.70456524 6.76586171 106.32080078 6.79394531 C107.4651635 6.77865028 107.4651635 6.77865028 108.63264465 6.76304626 C115.42138427 6.89296548 120.07434451 9.77165176 125.0234375 14.28125 C125.46945313 14.8278125 125.91546875 15.374375 126.375 15.9375 C127.06722656 16.75734375 127.06722656 16.75734375 127.7734375 17.59375 C130.99569263 22.43739465 131.319242 27.04900547 131.3359375 32.73828125 C131.3459227 33.93108955 131.3459227 33.93108955 131.35610962 35.147995 C131.36620719 36.82642311 131.37092754 38.50489115 131.37060547 40.18334961 C131.37496857 42.73164203 131.41128837 45.27818661 131.44921875 47.82617188 C131.45508984 49.4635358 131.45905728 51.10090788 131.4609375 52.73828125 C131.47530853 53.49063553 131.48967957 54.24298981 131.50448608 55.0181427 C131.444322 62.09736729 129.00703116 67.14375011 124.375 72.4375 C122 74.4375 122 74.4375 120 74.4375 C120 75.0975 120 75.7575 120 76.4375 C120.5775 76.664375 121.155 76.89125 121.75 77.125 C126.46334025 79.87444848 128.93603587 84.52777803 131 89.4375 C131.28226851 92.24349749 131.42168337 94.81746723 131.3984375 97.6171875 C131.40274277 98.77457932 131.40274277 98.77457932 131.40713501 99.95535278 C131.40916782 101.58075701 131.40369294 103.20618615 131.39111328 104.83154297 C131.37509146 107.29841839 131.39096492 109.76364474 131.41015625 112.23046875 C131.40817282 113.8177119 131.40432709 115.40495404 131.3984375 116.9921875 C131.40451019 117.71953094 131.41058289 118.44687439 131.4168396 119.19625854 C131.32718544 125.84011873 129.79236406 132.38891285 124.875 137.1875 C124.35679687 137.71859375 123.83859375 138.2496875 123.3046875 138.796875 C115.92772005 144.04827556 109.02276135 145.03648671 100.12475586 145.046875 C98.96896027 145.06363785 97.81316467 145.0804007 96.62234497 145.09767151 C92.81977218 145.14735371 89.01768428 145.16843412 85.21484375 145.1875 C83.22687093 145.20629913 81.23889779 145.22511178 79.25094134 145.24556828 C73.00174167 145.30984892 66.75261863 145.35463516 60.50317383 145.38623047 C54.09830055 145.41887161 47.69419138 145.48041017 41.28970617 145.55713081 C35.75734394 145.62257877 30.22500322 145.67157809 24.69237047 145.70750237 C21.40316761 145.72889651 18.11433602 145.75733128 14.82530022 145.79748535 C-8.81933534 146.06747956 -29.56972701 143.92774425 -48 127.4375 C-49.12148438 126.45523438 -49.12148438 126.45523438 -50.265625 125.453125 C-58.82150154 117.47928088 -64.30180697 107.94210955 -68.4375 97.125 C-68.68459717 96.47974365 -68.93169434 95.8344873 -69.1862793 95.16967773 C-75.16177804 78.52136305 -73.05059627 58.13076809 -65.94433594 42.30200195 C-56.97278222 23.38402204 -41.69680377 10.7192878 -22.265625 3.4453125 C-14.81743404 1.14670811 -7.80094257 0.02268354 0 0 Z M-49 28.4375 C-63.1713102 44.86275734 -66.52497425 63.42335482 -65 84.4375 C-64.34382017 89.0391714 -62.87468384 93.19172071 -61 97.4375 C-60.36384766 98.95150391 -60.36384766 98.95150391 -59.71484375 100.49609375 C-52.15055238 117.03639661 -38.80295622 128.69903941 -22 135.4375 C-4.80566299 141.39459314 13.77001963 139.62919038 30 131.9375 C46.64289021 123.54213468 57.70983712 109.13476702 63.96875 91.74609375 C68.98261557 75.05642086 66.55901011 57.19455053 58.9375 41.75 C49.5146017 25.39554539 34.52293326 14.03939998 16.5 8.625 C-7.56143505 3.14938084 -32.05531994 10.61686132 -49 28.4375 Z " fill="#050505" transform="translate(83,39.5625)"/>
<path d="M0 0 C13.75163997 10.93547966 23.6965434 26.19887193 26.24609375 43.73193359 C27.78270471 61.70784276 24.29386596 79.58414129 12.734375 93.99755859 C1.69208882 106.90857014 -12.75341275 116.28158313 -29.75390625 118.73193359 C-49.42357256 120.25517375 -67.07515041 116.33847533 -82.56640625 103.60693359 C-94.29205456 93.43638775 -103.79390788 78.05671093 -104.9309082 62.27514648 C-105.46948103 39.68298209 -101.67732005 22.74280004 -85.75390625 5.73193359 C-62.55089838 -16.60734132 -25.98649785 -18.78812219 0 0 Z M-81.75390625 16.73193359 C-84.40240864 20.24804884 -86.64605552 23.87035106 -88.75390625 27.73193359 C-89.16511719 28.48345703 -89.57632813 29.23498047 -90 30.00927734 C-96.50793427 43.192016 -95.84485091 57.97413036 -91.75390625 71.73193359 C-85.73675541 87.011257 -76.40434199 97.43628098 -61.4453125 104.23583984 C-55.51478614 106.64233089 -50.14854657 108.41220158 -43.75390625 108.73193359 C-43.07328125 108.77060547 -42.39265625 108.80927734 -41.69140625 108.84912109 C-27.13492534 109.31700798 -14.22074584 104.86496837 -3.25390625 95.23193359 C-1.73165111 93.75452394 -0.22916329 92.25627498 1.24609375 90.73193359 C2.12201172 89.85214844 2.12201172 89.85214844 3.015625 88.95458984 C13.88904794 77.25533731 16.10265728 62.26748376 15.65625 46.91162109 C14.99839974 35.60649535 10.24756295 26.4876859 3.24609375 17.73193359 C2.64152344 16.90951172 2.03695312 16.08708984 1.4140625 15.23974609 C-4.98310132 7.83978362 -14.51325749 2.64072912 -23.75390625 -0.26806641 C-25.61015625 -0.88681641 -25.61015625 -0.88681641 -27.50390625 -1.51806641 C-47.50116611 -5.92628 -68.15513333 1.94964972 -81.75390625 16.73193359 Z " fill="#F8F8F8" transform="translate(122.75390625,59.26806640625)"/>
<path d="M0 0 C1.41750563 0.11509661 2.83401169 0.24253658 4.25 0.375 C5.03890625 0.44460937 5.8278125 0.51421875 6.640625 0.5859375 C9.085877 1.01507113 10.84836903 1.78600638 13 3 C12.74605469 4.00417969 12.49210937 5.00835937 12.23046875 6.04296875 C11.32404449 9.63687693 10.42933897 13.23360346 9.5390625 16.83154297 C9.04274063 18.82806963 8.53741709 20.82235284 8.03125 22.81640625 C7.7528125 23.94949219 7.474375 25.08257812 7.1875 26.25 C6.80658203 27.77367187 6.80658203 27.77367187 6.41796875 29.328125 C6.00534349 31.96584161 6.1274885 33.50710999 7 36 C11.98236296 35.10154111 16.87130225 34.05692381 21.75390625 32.71875 C22.59526123 32.48889404 23.43661621 32.25903809 24.3034668 32.0222168 C26.00388776 31.55291805 27.70204838 31.0753429 29.39770508 30.58911133 C30.19200928 30.3702124 30.98631348 30.15131348 31.8046875 29.92578125 C32.51608887 29.72380127 33.22749023 29.52182129 33.96044922 29.3137207 C36.32356457 28.95022977 37.78178139 29.11336866 40 30 C42.02112058 34.34540924 42 37.03758596 42 42 C32.1 44.64 22.2 47.28 12 50 C11.67 51.32 11.34 52.64 11 54 C12.85283691 56.44983865 12.85283691 56.44983865 15.53125 58.80859375 C16.49615613 59.72975237 17.4609979 60.65097841 18.42578125 61.57226562 C19.96254147 63.00944378 21.50406523 64.44126203 23.04833984 65.87036133 C24.53429842 67.2538482 26.00172149 68.65509141 27.46875 70.05859375 C28.80583008 71.30080688 28.80583008 71.30080688 30.16992188 72.56811523 C32 75 32 75 31.88500977 77.69628906 C30.37648119 81.62304095 27.21954925 83.48289786 24 86 C20.11589726 82.78609538 16.45317084 79.51297389 12.95703125 75.87890625 C12.27576172 75.17185547 11.59449219 74.46480469 10.89257812 73.73632812 C9.48658102 72.26696214 8.08831286 70.79016745 6.69726562 69.30664062 C6.01986328 68.60861328 5.34246094 67.91058594 4.64453125 67.19140625 C3.73731323 66.23536499 3.73731323 66.23536499 2.81176758 65.26000977 C1.05691546 63.7369116 1.05691546 63.7369116 -1.2277832 64.30053711 C-1.81261475 64.53135986 -2.39744629 64.76218262 -3 65 C-3.24907104 65.99012085 -3.24907104 65.99012085 -3.50317383 67.00024414 C-4.26702469 70.02252884 -5.03968576 73.04249542 -5.8125 76.0625 C-6.07353516 77.10083984 -6.33457031 78.13917969 -6.60351562 79.20898438 C-8.01944902 84.71539201 -9.57023687 89.85590688 -12 95 C-13.43791516 94.85831863 -14.8753237 94.71148957 -16.3125 94.5625 C-17.51326172 94.44068359 -17.51326172 94.44068359 -18.73828125 94.31640625 C-21 94 -21 94 -24 93 C-23.28783727 85.29403402 -21.18709082 78.18195122 -18.99609375 70.78125 C-18.72667969 69.83765625 -18.45726562 68.8940625 -18.1796875 67.921875 C-17.92944824 67.07206055 -17.67920898 66.22224609 -17.42138672 65.34667969 C-16.97443551 62.85763275 -17.19568442 61.37255982 -18 59 C-23.78185071 59.5729762 -28.97394388 60.7385067 -34.5 62.5 C-40.02605612 64.2614933 -45.21814929 65.4270238 -51 66 C-52.76722161 61.47149462 -53.09200044 57.83577293 -53 53 C-49.33351372 52.04097566 -45.66677838 51.08290687 -42 50.125 C-40.97003906 49.85558594 -39.94007812 49.58617187 -38.87890625 49.30859375 C-33.25997992 47.84123082 -27.63715573 46.39573808 -22 45 C-23.28487431 40.16174123 -24.99985397 37.51912967 -28.5703125 34.0390625 C-29.46621094 33.15605469 -30.36210938 32.27304688 -31.28515625 31.36328125 C-32.22230469 30.45964844 -33.15945312 29.55601563 -34.125 28.625 C-35.08034573 27.68973953 -36.03478266 26.7535498 -36.98828125 25.81640625 C-39.31675021 23.53497707 -41.65404307 21.26341988 -44 19 C-41.95933017 14.73384496 -39.41446998 12.26601476 -36 9 C-32.33641984 10.53159531 -30.08086589 12.72770951 -27.33984375 15.5703125 C-26.46392578 16.46621094 -25.58800781 17.36210938 -24.68554688 18.28515625 C-22.8477216 20.18437298 -21.01179418 22.08542798 -19.17773438 23.98828125 C-18.30310547 24.88160156 -17.42847656 25.77492188 -16.52734375 26.6953125 C-15.33226196 27.9330542 -15.33226196 27.9330542 -14.11303711 29.19580078 C-12.08283543 31.32467148 -12.08283543 31.32467148 -9 31 C-5.9515092 20.68010903 -2.93672334 10.35235992 0 0 Z " fill="#F7F7F7" transform="translate(89,65)"/>
<path d="M0 0 C4.75734783 2.42531458 7.71438001 5.15448563 10 10 C10.42697238 14.75647229 9.6647238 18.65587101 6.6875 22.4375 C3.6987765 25.2872131 1.76278573 26.88821359 -2.40234375 27.15234375 C-6.8795453 26.77291989 -9.36165056 26.49206103 -13 23.6875 C-16.25354756 19.31554546 -17.48107461 16.68512905 -17.3125 11.02734375 C-16.78010527 7.57343294 -15.28137423 5.58155505 -13 3 C-8.634442 0.089628 -5.20499921 -0.6506249 0 0 Z " fill="#080808" transform="translate(87,99)"/>
<path d="M0 0 C2.30047725 0.23915853 4.59870666 0.5277672 6.875 0.9375 C4.98106712 4.04665262 3.02094227 7.1051978 1.02148438 10.14746094 C0.22250375 11.39493239 -0.55323893 12.65746347 -1.31054688 13.93066406 C-7.19280963 23.81342305 -7.19280963 23.81342305 -11.125 26.9375 C-16.03990883 28.16371447 -20.18194666 27.91167839 -25.125 26.9375 C-23.53436963 24.40407878 -21.92882733 21.88492378 -20.2890625 19.3828125 C-18.70938532 16.93755878 -17.31609911 14.44308451 -15.9609375 11.8671875 C-11.85182292 4.43540013 -9.12830123 -0.40974114 0 0 Z " fill="#F6F6F6" transform="translate(177.125,52.0625)"/>
<path d="M0 0 C1.93166016 0.01740234 1.93166016 0.01740234 3.90234375 0.03515625 C5.19269531 0.04417969 6.48304688 0.05320312 7.8125 0.0625 C8.81152344 0.07410156 9.81054688 0.08570312 10.83984375 0.09765625 C7.79066668 5.66443472 4.34094103 10.81128973 0.65234375 15.97265625 C0.10642578 16.74351562 -0.43949219 17.514375 -1.00195312 18.30859375 C-5.00226776 23.93976776 -5.00226776 23.93976776 -6.16015625 25.09765625 C-8.34655078 25.17024571 -10.53516014 25.18139408 -12.72265625 25.16015625 C-14.51896484 25.14662109 -14.51896484 25.14662109 -16.3515625 25.1328125 C-17.27839844 25.12121094 -18.20523438 25.10960937 -19.16015625 25.09765625 C-17.85645267 21.54744452 -16.30492022 18.59632567 -14.15625 15.48828125 C-13.58068359 14.65167969 -13.00511719 13.81507813 -12.41210938 12.953125 C-11.81333984 12.09332031 -11.21457031 11.23351562 -10.59765625 10.34765625 C-9.99501953 9.47238281 -9.39238281 8.59710938 -8.77148438 7.6953125 C-3.53173185 0.10913881 -3.53173185 0.10913881 0 0 Z " fill="#FAFAFA" transform="translate(172.16015625,118.90234375)"/>
<path d="M0 0 C4.72122429 -1.25178124 8.30829559 -1.4692185 13 0 C17.84830749 4.43110946 21.25445854 10.26195096 24.66064453 15.82519531 C25.84479342 17.74798028 27.08489865 19.6057942 28.37109375 21.4609375 C30 24 30 24 30 26 C25.54799891 27.33116312 21.28657549 28.06938127 17 26 C11.81805544 20.93274637 8.11571032 14.47694002 4.41943359 8.29003906 C3.03355773 5.96597009 3.03355773 5.96597009 1.31884766 3.82714844 C0 2 0 2 0 0 Z " fill="#F7F7F7" transform="translate(153,86)"/>
<path d="M0 0 C4.68784208 -1.15683845 8.34448132 -1.3966556 13 0 C17.52935063 4.11360066 20.57574198 9.61739274 23.671875 14.83642578 C24.97066448 16.95221115 26.36960562 18.93718404 27.84375 20.93359375 C30 24 30 24 30 26 C25.31215792 27.15683845 21.65551868 27.3966556 17 26 C12.47064937 21.88639934 9.42425802 16.38260726 6.328125 11.16357422 C5.02933552 9.04778885 3.63039438 7.06281596 2.15625 5.06640625 C0 2 0 2 0 0 Z " fill="#F7F7F7" transform="translate(153,151)"/>
<path d="M0 0 C5.95703125 0.390625 5.95703125 0.390625 8 1 C9.76171875 3.046875 9.76171875 3.046875 11 5 C10.47043701 5.74890503 10.47043701 5.74890503 9.93017578 6.51293945 C8.32803702 8.77916763 6.72651213 11.04582895 5.125 13.3125 C4.56941406 14.09818359 4.01382813 14.88386719 3.44140625 15.69335938 C2.90644531 16.45068359 2.37148437 17.20800781 1.8203125 17.98828125 C1.32805176 18.68477783 0.83579102 19.38127441 0.32861328 20.09887695 C-0.80265296 21.71761459 -1.90454438 23.35681656 -3 25 C-6.2578125 25.29296875 -6.2578125 25.29296875 -10.125 25.1875 C-11.40632812 25.16042969 -12.68765625 25.13335937 -14.0078125 25.10546875 C-14.99523437 25.07066406 -15.98265625 25.03585938 -17 25 C-11.45794598 16.5816901 -5.72127831 8.29687157 0 0 Z " fill="#F9F9F9" transform="translate(191,54)"/>
<path d="M0 0 C4.85222386 0.44111126 6.73747692 1.45377927 10 5 C-0.84768139 23.45996019 -0.84768139 23.45996019 -5.93896484 25.94726562 C-9.76139413 26.71947356 -13.31021515 26.10325793 -17 25 C-15.41719572 20.15848103 -12.64974437 16.51972607 -9.625 12.5 C-9.14289063 11.84902344 -8.66078125 11.19804687 -8.1640625 10.52734375 C-5.51216645 6.96025531 -2.80131324 3.45185518 0 0 Z " fill="#F9F9F9" transform="translate(192,119)"/>
<path d="M0 0 C4.82099262 -0.66196709 9.20416314 -0.93705704 14 0 C17.36581414 3.15220329 19.02041623 6.88246576 21 11 C22.11641668 12.74830352 23.26001058 14.47973244 24.4375 16.1875 C24.93121094 16.92355469 25.42492187 17.65960938 25.93359375 18.41796875 C26.28550781 18.94003906 26.63742188 19.46210938 27 20 C25.234375 23.8359375 25.234375 23.8359375 23.125 25.3125 C20.5454012 26.14707608 19.52103775 25.94188981 17 25 C15.52368164 23.45288086 15.52368164 23.45288086 14.16015625 21.46484375 C13.65419922 20.73716797 13.14824219 20.00949219 12.62695312 19.25976562 C12.11068359 18.49341797 11.59441406 17.72707031 11.0625 16.9375 C10.55009766 16.19822266 10.03769531 15.45894531 9.50976562 14.69726562 C6.19678592 9.88565723 3.0540234 4.97940438 0 0 Z " fill="#F5F5F5" transform="translate(174,151)"/>
<path d="M0 0 C4.76077493 -1.28476685 9.41246172 -2.13405152 14 0 C19.35639736 5.15870025 24.69181955 12.89674127 27 20 C26.25976562 22.23535156 26.25976562 22.23535156 25 24 C21.91468881 25.5426556 20.43665575 25.6612093 17 25 C14.33764636 22.26162436 12.39923477 19.10053297 10.375 15.875 C9.53582031 14.59109375 9.53582031 14.59109375 8.6796875 13.28125 C7.59513127 11.61860484 6.51893333 9.95047027 5.45214844 8.27636719 C3.67454277 5.48981788 1.84372131 2.74309755 0 0 Z " fill="#F8F8F8" transform="translate(174,86)"/>
<path d="M0 0 C2.76995409 2.64710383 5.04913638 5.3081963 7.19921875 8.4765625 C7.76833984 9.311875 8.33746094 10.1471875 8.92382812 11.0078125 C9.7968457 12.30332031 9.7968457 12.30332031 10.6875 13.625 C11.28111328 14.49640625 11.87472656 15.3678125 12.48632812 16.265625 C16.83899824 22.67799648 16.83899824 22.67799648 18 25 C13.07806736 25.90534819 8.89466107 26.15547723 4 25 C1.38666719 23.09553821 -0.53237188 20.86455609 -2.5 18.3125 C-2.98637939 17.68778809 -3.47275879 17.06307617 -3.97387695 16.41943359 C-5.28125 14.55078125 -5.28125 14.55078125 -7 11 C-6.06652863 6.37208562 -3.05364316 3.45543831 0 0 Z " fill="#F6F6F6" transform="translate(144,152)"/>
<path d="M0 0 C-0.18548299 8.56594189 -2.35051721 15.28356592 -6 23 C-11.62219846 18.33477149 -17.16010796 13.48740595 -22 8 C-22 7.34 -22 6.68 -22 6 C-18.52144132 4.9978766 -15.04205526 3.9986571 -11.5625 3 C-10.56927734 2.71382813 -9.57605469 2.42765625 -8.55273438 2.1328125 C-7.13637695 1.72675781 -7.13637695 1.72675781 -5.69140625 1.3125 C-4.81685791 1.06113281 -3.94230957 0.80976562 -3.04125977 0.55078125 C-1 0 -1 0 0 0 Z " fill="#F2F2F2" transform="translate(132,113)"/>
<path d="M0 0 C-0.63315791 5.12524666 -1.68160656 9.96530771 -3.0625 14.9375 C-3.24876953 15.62134766 -3.43503906 16.30519531 -3.62695312 17.00976562 C-4.08089057 18.67420293 -4.53990916 20.33725312 -5 22 C-7.93230193 20.67879172 -9.98664899 19.25361803 -12.234375 16.9609375 C-12.80800781 16.38085938 -13.38164063 15.80078125 -13.97265625 15.203125 C-14.55917969 14.59984375 -15.14570312 13.9965625 -15.75 13.375 C-16.35199219 12.76398438 -16.95398438 12.15296875 -17.57421875 11.5234375 C-19.05405305 10.02011376 -20.52764676 8.51065144 -22 7 C-19.16651381 3.93017112 -16.70938448 3.02324031 -12.6875 1.8125 C-11.57761719 1.46832031 -10.46773437 1.12414062 -9.32421875 0.76953125 C-6.08491719 0.01965768 -3.31006373 -0.14522216 0 0 Z " fill="#F3F3F3" transform="translate(82,64)"/>
<path d="M0 0 C6.36806998 3.05136687 10.85938892 7.26373879 15 13 C15.37129922 14.32326331 15.71130767 15.65629407 16 17 C13.2518872 17.84003448 10.50180419 18.67222151 7.75 19.5 C6.97269531 19.73847656 6.19539063 19.97695312 5.39453125 20.22265625 C4.26337891 20.56103516 4.26337891 20.56103516 3.109375 20.90625 C2.07248535 21.22045898 2.07248535 21.22045898 1.01464844 21.54101562 C-1 22 -1 22 -5 22 C-4.38955672 14.36945905 -2.20378179 7.29810526 0 0 Z " fill="#F4F4F4" transform="translate(108,71)"/>
<path d="M0 0 C-0.45344029 2.3760271 -0.91259259 4.75071581 -1.375 7.125 C-1.56449219 8.12273437 -1.56449219 8.12273437 -1.7578125 9.140625 C-2.5574274 13.218661 -3.59869485 17.08853085 -5 21 C-12.23176635 19.75980844 -17.80547589 12.63639178 -22 7 C-22 6.34 -22 5.68 -22 5 C-19.08503169 4.1602972 -16.1682814 3.32803997 -13.25 2.5 C-12.0125 2.14228516 -12.0125 2.14228516 -10.75 1.77734375 C-9.95078125 1.55175781 -9.1515625 1.32617188 -8.328125 1.09375 C-7.5949707 0.88427734 -6.86181641 0.67480469 -6.10644531 0.45898438 C-4 0 -4 0 0 0 Z " fill="#F6F6F6" transform="translate(64,132)"/>
<path d="M0 0 C5.62219846 4.66522851 11.16010796 9.51259405 16 15 C16 15.66 16 16.32 16 17 C13.64995631 17.84686259 11.2960687 18.67750196 8.9375 19.5 C7.95233398 19.85771484 7.95233398 19.85771484 6.94726562 20.22265625 C2.49900091 21.75654063 -1.23461699 22.24787428 -6 22 C-4.36695592 14.50652821 -2.57281882 7.22839572 0 0 Z " fill="#F7F7F7" transform="translate(90,139)"/>
<path d="M0 0 C2.93230193 1.32120828 4.98664899 2.74638197 7.234375 5.0390625 C8.09482422 5.90917969 8.09482422 5.90917969 8.97265625 6.796875 C9.55917969 7.40015625 10.14570312 8.0034375 10.75 8.625 C11.35199219 9.23601562 11.95398438 9.84703125 12.57421875 10.4765625 C14.05405305 11.97988624 15.52764676 13.48934856 17 15 C14.29668983 17.70331017 11.28457204 18.19915686 7.6875 19.125 C7.02298828 19.30675781 6.35847656 19.48851563 5.67382812 19.67578125 C2.0393086 20.63204455 -1.24115057 21.21811505 -5 21 C-5.66927078 13.63802138 -3.2825536 6.5651072 0 0 Z " fill="#F8F8F8" transform="translate(40,90)"/>
<path d="M0 0 C2.02524695 0.15982783 4.04930982 0.35253817 6.0625 0.625 C3.18514504 6.22066015 -0.08209868 11.49528019 -3.625 16.6875 C-4.01743896 17.27168701 -4.40987793 17.85587402 -4.81420898 18.45776367 C-5.80213591 19.88514702 -6.86417244 21.26067204 -7.9375 22.625 C-8.5975 22.625 -9.2575 22.625 -9.9375 22.625 C-11.26171875 21.26953125 -11.26171875 21.26953125 -12.625 19.4375 C-13.08261719 18.84582031 -13.54023438 18.25414063 -14.01171875 17.64453125 C-15.28356949 14.87007204 -14.84602796 13.51142377 -13.9375 10.625 C-10.83527488 3.54158598 -8.03818653 -0.04382872 0 0 Z " fill="#F2F2F2" transform="translate(154.9375,52.375)"/>
<path d="M0 0 C2.73251347 1.99399631 3.83247946 3.1623973 4.5 6.5 C4 9 4 9 2.4375 11.375 C0 13 0 13 -3.625 12.9375 C-7 12 -7 12 -9 9 C-9.375 6 -9.375 6 -9 3 C-6.31164707 0.01294119 -3.93697301 -0.68897028 0 0 Z " fill="#F6F6F6" transform="translate(86,106)"/>
<path d="M0 0 C1.5078125 1.6796875 1.5078125 1.6796875 3.125 3.875 C3.66382813 4.59429687 4.20265625 5.31359375 4.7578125 6.0546875 C6 8 6 8 6 10 C-0.93 10 -7.86 10 -15 10 C-12.39717322 7.39717322 -9.93311337 5.41692942 -6.9375 3.3125 C-6.05964844 2.68988281 -5.18179688 2.06726563 -4.27734375 1.42578125 C-2 0 -2 0 0 0 Z " fill="#F0F0F0" transform="translate(133,167)"/>
<path d="M0 0 C3.63 0 7.26 0 11 0 C11 4.62 11 9.24 11 14 C10.01 14 9.02 14 8 14 C5.95703125 11.4453125 5.95703125 11.4453125 3.8125 8.125 C3.09707031 7.03445312 2.38164062 5.94390625 1.64453125 4.8203125 C0 2 0 2 0 0 Z " fill="#F2F2F2" transform="translate(196,151)"/>
<path d="M0 0 C3.63 0 7.26 0 11 0 C11 4.62 11 9.24 11 14 C10.01 14.495 10.01 14.495 9 15 C7.49726004 12.68923915 5.99770448 10.37652089 4.5 8.0625 C4.07074219 7.40314453 3.64148438 6.74378906 3.19921875 6.06445312 C0 1.11328125 0 1.11328125 0 0 Z " fill="#FBFBFB" transform="translate(196,86)"/>
<path d="M0 0 C0.66 0 1.32 0 2 0 C2 4.62 2 9.24 2 14 C-1.63 14 -5.26 14 -9 14 C-7.87540329 12.22891052 -6.75030797 10.45813764 -5.625 8.6875 C-4.99851563 7.70136719 -4.37203125 6.71523437 -3.7265625 5.69921875 C-2.50348387 3.78712071 -1.2590644 1.8885966 0 0 Z " fill="#F8F8F8" transform="translate(205,65)"/>
<path d="M0 0 C0.66 0 1.32 0 2 0 C2 4.62 2 9.24 2 14 C-1.63 14 -5.26 14 -9 14 C-7.87540329 12.22891052 -6.75030797 10.45813764 -5.625 8.6875 C-4.99851563 7.70136719 -4.37203125 6.71523437 -3.7265625 5.69921875 C-2.50348387 3.78712071 -1.2590644 1.8885966 0 0 Z " fill="#F7F7F7" transform="translate(205,130)"/>
<path d="M0 0 C4.62 0 9.24 0 14 0 C12.35 2.64 10.7 5.28 9 8 C7.68388323 7.04663979 6.37221039 6.08714226 5.0625 5.125 C4.33160156 4.59132813 3.60070312 4.05765625 2.84765625 3.5078125 C1 2 1 2 0 0 Z " fill="#E1E1E1" transform="translate(126,53)"/>
<path d="M0 0 C2.96404505 2.80804268 5.44499019 5.18315774 7 9 C5.02 9 3.04 9 1 9 C0.67 6.03 0.34 3.06 0 0 Z " fill="#E5E5E5" transform="translate(155,103)"/>
<path d="M0 0 C1.65 0 3.3 0 5 0 C3.68775452 3.93673644 2.08089673 6.22719294 -1 9 C-0.67 6.03 -0.34 3.06 0 0 Z " fill="#E0E0E0" transform="translate(155,119)"/>
</svg>
